<mxfile host="app.diagrams.net" modified="2023-07-28T07:15:54.540Z" agent="Mozilla/5.0 (Windows NT 10.0; Win64; x64) AppleWebKit/537.36 (KHTML, like Gecko) Chrome/112.0.0.0 YaBrowser/23.5.1.785 (corp) Yowser/2.5 Safari/537.36" version="21.6.5" etag="KCdoDpUXUlsykhrr20by" type="github">
  <diagram name="Страница 1" id="VmuSpo7wx1FPYqAFTilH">
    <mxGraphModel>
      <root>
        <mxCell id="0" />
        <mxCell id="1" parent="0" />
      </root>
    </mxGraphModel>
  </diagram>
</mxfile>
